<?xml version="1.0" encoding="iso-8859-1"?>
<!-- Generator: Adobe Illustrator 16.0.0, SVG Export Plug-In . SVG Version: 6.00 Build 0)  -->
<!DOCTYPE svg PUBLIC "-//W3C//DTD SVG 1.1//EN" "http://www.w3.org/Graphics/SVG/1.1/DTD/svg11.dtd">
<svg version="1.1" id="Capa_1" xmlns="http://www.w3.org/2000/svg" xmlns:xlink="http://www.w3.org/1999/xlink" x="0px" y="0px"
	 width="198.787px" height="198.787px" viewBox="0 0 198.787 198.787" style="enable-background:new 0 0 198.787 198.787;"
	 xml:space="preserve">
<g>
	<g>
		<path d="M140.769,65.647v47.535l33.612-33.612C165.485,71.316,153.739,66.134,140.769,65.647z"/>
		<path d="M136.762,170.372V122.84l-33.612,33.611C112.041,164.709,123.792,169.891,136.762,170.372z"/>
		<path d="M191.126,116.02c-0.487-12.982-5.663-24.719-13.92-33.624l-33.624,33.624H191.126z"/>
		<path d="M140.769,170.372c12.97-0.486,24.716-5.662,33.612-13.92l-33.612-33.611V170.372z"/>
		<path d="M177.207,153.639c8.245-8.908,13.433-20.648,13.92-33.625h-47.532L177.207,153.639z"/>
		<path d="M138.766,57.991c-2.558,0-5.048,0.231-7.526,0.557c-11.539-22.411-34.86-37.798-61.76-37.798
			C31.164,20.749,0,51.917,0,90.22c0,38.307,31.164,69.483,69.48,69.483c8.011,0,15.68-1.431,22.853-3.945
			c11.012,13.529,27.672,22.279,46.433,22.279c33.106,0,60.021-26.932,60.021-60.026C198.787,84.914,171.873,57.991,138.766,57.991z
			 M4.631,90.22c0-35.752,29.094-64.84,64.849-64.84c35.753,0,64.841,29.088,64.841,64.84c0,35.756-29.088,64.85-64.841,64.85
			C33.719,155.07,4.631,125.976,4.631,90.22z M138.766,174.038c-17.02,0-32.176-7.721-42.451-19.735
			c25.023-10.528,42.64-35.28,42.64-64.082c0-9.855-2.083-19.224-5.81-27.721c1.863-0.213,3.702-0.512,5.614-0.512
			c30.896,0,56.021,25.136,56.021,56.018C194.78,148.895,169.662,174.038,138.766,174.038z"/>
		<path d="M8.86,92.541c0.572,15.016,6.561,28.606,16.105,38.909l38.916-38.909H8.86z"/>
		<path d="M71.794,29.609v55.019l38.913-38.907C100.41,36.173,86.807,30.169,71.794,29.609z"/>
		<path d="M24.965,48.994C15.421,59.299,9.42,72.894,8.86,87.91h55.027L24.965,48.994z"/>
		<path d="M67.167,84.627V29.603c-15.022,0.566-28.613,6.563-38.922,16.111L67.167,84.627z"/>
		<path d="M67.167,150.838V95.804L28.25,134.726C38.547,144.274,52.145,150.278,67.167,150.838z"/>
		<path d="M130.088,87.91c-0.56-15.016-6.552-28.616-16.111-38.916L75.067,87.91H130.088z"/>
		<path d="M71.794,150.838c15.019-0.561,28.616-6.564,38.913-16.112l-38.913-38.91V150.838z"/>
		<path d="M75.073,92.541l38.904,38.909c9.56-10.303,15.552-23.894,16.111-38.909H75.073z"/>
	</g>
</g>
<g>
</g>
<g>
</g>
<g>
</g>
<g>
</g>
<g>
</g>
<g>
</g>
<g>
</g>
<g>
</g>
<g>
</g>
<g>
</g>
<g>
</g>
<g>
</g>
<g>
</g>
<g>
</g>
<g>
</g>
</svg>
