<?xml version="1.0" standalone="no"?>
<!DOCTYPE svg PUBLIC "-//W3C//DTD SVG 20010904//EN"
 "http://www.w3.org/TR/2001/REC-SVG-20010904/DTD/svg10.dtd">
<svg version="1.0" xmlns="http://www.w3.org/2000/svg"
 width="867.000000pt" height="183.000000pt" viewBox="0 0 867.000000 183.000000"
 preserveAspectRatio="xMidYMid meet">

<g transform="translate(0.000000,183.000000) scale(0.100000,-0.100000)"
fill="#000000" stroke="none">
<path d="M3875 1820 c-4 -6 -23 -18 -42 -28 -27 -13 -40 -28 -52 -61 -17 -48
-49 -70 -150 -107 -44 -15 -53 -23 -66 -59 -15 -39 -19 -42 -84 -58 -83 -22
-156 -68 -236 -147 -33 -33 -85 -79 -115 -103 -36 -28 -64 -60 -80 -93 -14
-27 -36 -61 -50 -76 -14 -14 -33 -37 -42 -51 -10 -14 -43 -40 -74 -57 -30 -18
-58 -40 -62 -49 -8 -22 -120 -129 -142 -136 -9 -3 -22 -17 -28 -30 -7 -14 -20
-25 -31 -25 -35 0 -51 -12 -70 -49 -11 -21 -42 -52 -74 -74 -30 -21 -58 -46
-63 -56 -5 -11 -29 -34 -53 -53 -38 -29 -57 -56 -93 -130 -4 -10 -8 -31 -8
-48 0 -17 -6 -33 -14 -36 -8 -3 -18 -20 -21 -37 -4 -18 -20 -54 -35 -82 -35
-64 -43 -97 -27 -118 11 -15 39 -16 306 -7 162 5 297 12 301 17 4 4 49 102
100 218 195 445 161 390 368 604 175 182 191 196 370 318 103 70 202 143 220
163 32 34 35 35 110 35 l77 -1 83 -64 c46 -36 95 -74 110 -85 15 -11 53 -41
84 -67 31 -27 61 -48 67 -48 6 0 11 -2 11 -5 0 -11 -64 -112 -85 -135 -13 -14
-31 -43 -40 -65 -10 -21 -30 -55 -46 -74 -16 -20 -29 -40 -29 -45 0 -5 -16
-28 -35 -52 -19 -23 -35 -45 -35 -49 0 -4 -6 -21 -14 -38 -8 -18 -24 -58 -35
-90 -25 -69 -47 -104 -84 -136 -15 -13 -37 -42 -49 -65 -24 -48 -56 -86 -74
-86 -6 0 -35 -25 -62 -55 -36 -39 -52 -66 -57 -95 -4 -24 -14 -44 -26 -50 -11
-6 -19 -21 -19 -35 0 -48 16 -52 212 -57 101 -3 189 -3 196 0 19 7 218 414
285 584 l59 146 121 119 c67 66 143 132 169 147 42 24 52 26 81 17 45 -15 98
4 129 46 13 17 37 50 54 72 l32 41 34 -43 c39 -48 150 -201 190 -264 15 -23
48 -56 73 -73 25 -17 45 -37 45 -44 0 -38 79 -122 167 -178 40 -26 129 -155
172 -248 25 -53 52 -90 66 -90 8 0 34 -16 60 -35 39 -30 49 -34 66 -24 17 9
20 17 15 42 -4 18 -12 34 -18 36 -24 8 -102 88 -139 142 -24 36 -45 84 -58
133 -22 87 -42 116 -80 116 -20 0 -52 27 -139 117 -102 108 -172 193 -172 211
0 14 -62 82 -74 82 -8 0 -29 25 -47 57 -30 49 -84 115 -200 241 -21 23 -36 31
-47 27 -48 -20 -99 -17 -152 9 -50 25 -58 26 -94 15 -25 -9 -53 -30 -80 -62
-107 -129 -118 -139 -136 -122 -9 8 -22 15 -29 15 -6 0 -41 13 -77 30 -63 28
-66 31 -95 97 -45 102 -54 117 -88 134 -32 17 -90 92 -91 119 -1 8 -11 29 -23
46 -12 17 -39 56 -60 88 -37 55 -67 76 -107 76 -10 0 -22 -5 -25 -10z"/>
<path d="M1130 1714 c-138 -60 -184 -280 -89 -429 22 -34 43 -52 82 -70 28
-14 60 -25 70 -25 23 0 22 25 -3 50 -19 19 -20 33 -20 220 0 187 1 201 20 220
45 45 10 65 -60 34z"/>
<path d="M1240 1715 c0 -8 9 -24 20 -35 19 -19 20 -33 20 -220 0 -187 -1 -201
-20 -220 -25 -25 -26 -50 -2 -50 9 0 41 11 69 25 91 42 142 152 130 281 -7 68
-40 145 -79 181 -46 44 -138 69 -138 38z"/>
<path d="M1610 1719 c-62 -25 -100 -85 -100 -159 0 -89 27 -122 152 -185 45
-22 86 -47 91 -56 15 -24 1 -64 -28 -79 -14 -7 -25 -22 -25 -33 0 -17 5 -19
36 -14 112 18 183 139 140 240 -18 45 -67 83 -153 123 -75 34 -95 58 -85 97 3
10 13 24 23 30 11 7 19 20 19 29 0 20 -29 23 -70 7z"/>
<path d="M1720 1710 c0 -11 6 -20 13 -20 22 0 77 -65 88 -104 7 -27 15 -36 27
-34 14 3 17 18 20 91 3 90 -1 98 -37 75 -15 -9 -25 -9 -46 0 -40 18 -65 15
-65 -8z"/>
<path d="M10 1705 c0 -8 9 -19 20 -25 19 -10 20 -21 20 -210 0 -206 -3 -230
-26 -230 -8 0 -14 -9 -14 -20 0 -19 7 -20 120 -20 111 0 120 1 120 19 0 10 -7
21 -15 25 -13 5 -15 41 -15 241 l0 235 -105 0 c-86 0 -105 -3 -105 -15z"/>
<path d="M250 1703 c1 -11 17 -26 42 -38 28 -13 48 -33 61 -57 31 -62 47 -50
47 37 l0 75 -75 0 c-65 0 -75 -2 -75 -17z"/>
<path d="M460 1705 c0 -8 9 -19 20 -25 19 -10 20 -21 20 -210 0 -206 -3 -230
-26 -230 -8 0 -14 -9 -14 -20 0 -19 7 -20 119 -20 126 0 155 10 113 38 -22 14
-22 19 -22 248 l0 234 -105 0 c-86 0 -105 -3 -105 -15z"/>
<path d="M700 1702 c0 -9 9 -23 20 -30 17 -11 20 -23 20 -97 0 -74 -2 -86 -20
-95 -11 -6 -20 -18 -20 -28 0 -9 9 -23 20 -30 16 -10 20 -23 20 -70 0 -120 31
-162 121 -162 33 0 47 6 75 34 19 19 34 39 34 45 0 18 -29 25 -45 11 -13 -11
-15 -5 -15 38 0 28 -5 63 -12 77 -13 29 -54 55 -90 56 -18 0 -13 5 19 19 77
34 105 119 63 188 -25 41 -73 62 -140 62 -41 0 -50 -3 -50 -18z"/>
<path d="M1940 1629 c0 -80 2 -90 17 -87 11 2 22 21 31 53 8 28 23 59 33 71
35 37 25 54 -31 54 l-50 0 0 -91z"/>
<path d="M2070 1486 c0 -229 0 -234 -22 -248 -42 -28 -13 -38 107 -38 120 0
149 10 107 38 -22 14 -22 19 -22 248 l0 234 -85 0 -85 0 0 -234z"/>
<path d="M2270 1703 c0 -9 9 -26 19 -37 10 -12 25 -43 33 -71 9 -32 20 -51 31
-53 15 -3 17 7 17 87 l0 91 -50 0 c-40 0 -50 -3 -50 -17z"/>
<path d="M2394 1709 c-4 -7 0 -16 9 -20 8 -5 43 -74 76 -153 52 -123 61 -154
61 -205 0 -68 -6 -91 -26 -91 -8 0 -14 -9 -14 -20 0 -19 7 -20 119 -20 126 0
155 10 113 38 -20 13 -22 23 -22 104 0 86 -2 95 -50 206 -46 104 -49 116 -35
132 32 35 20 40 -104 40 -78 0 -122 -4 -127 -11z"/>
<path d="M2700 1706 c0 -7 11 -21 25 -30 31 -20 31 -28 0 -94 -20 -44 -23 -57
-13 -75 10 -20 15 -14 56 69 29 61 52 95 68 103 13 6 24 17 24 26 0 12 -15 15
-80 15 -61 0 -80 -3 -80 -14z"/>
<path d="M5466 1685 c-56 -20 -87 -45 -120 -99 -26 -41 -31 -60 -34 -134 -2
-48 1 -105 7 -128 23 -85 92 -150 179 -169 28 -6 32 -4 32 14 0 11 -9 25 -20
31 -19 10 -20 21 -20 225 0 204 1 215 20 225 22 12 28 50 8 50 -7 -1 -31 -7
-52 -15z"/>
<path d="M5560 1685 c0 -9 9 -28 20 -42 18 -24 20 -41 20 -218 0 -177 -2 -194
-20 -218 -11 -14 -20 -33 -20 -42 0 -14 6 -15 33 -10 49 11 80 30 119 73 47
52 63 101 63 197 0 96 -16 145 -63 197 -39 43 -70 62 -119 73 -27 5 -33 4 -33
-10z"/>
<path d="M5824 1678 c-4 -7 2 -18 14 -26 21 -14 22 -20 22 -209 0 -113 4 -202
10 -213 17 -32 95 -71 155 -77 49 -5 55 -4 55 12 0 10 -10 29 -22 43 -22 23
-23 32 -26 220 -3 192 -3 197 18 214 13 11 20 24 16 33 -4 12 -27 15 -120 15
-77 0 -117 -4 -122 -12z"/>
<path d="M6154 1679 c-3 -6 6 -22 22 -34 l29 -23 0 -180 0 -181 -29 -30 c-17
-17 -36 -31 -43 -31 -7 0 -13 -11 -13 -25 0 -30 1 -30 49 -5 68 34 81 78 81
264 0 162 5 187 43 217 11 9 17 21 13 28 -9 15 -142 15 -152 0z"/>
<path d="M6377 1683 c-13 -12 -7 -32 11 -37 10 -4 78 -110 157 -246 l140 -240
53 0 52 0 0 88 0 87 -103 177 -102 178 -101 0 c-55 0 -104 -3 -107 -7z"/>
<path d="M6695 1680 c-4 -6 7 -23 24 -39 29 -27 31 -33 31 -105 0 -58 5 -83
20 -108 l20 -33 0 98 c0 101 8 129 43 157 11 10 17 22 13 28 -9 15 -142 16
-151 2z"/>
<path d="M6890 1600 c0 -82 2 -90 19 -90 20 0 24 8 36 66 3 17 15 41 25 52 11
12 20 30 20 42 0 17 -6 20 -50 20 l-50 0 0 -90z"/>
<path d="M7020 1451 c0 -234 0 -239 -22 -253 -42 -28 -13 -38 108 -38 95 0
116 3 121 16 3 9 -3 21 -16 30 -20 15 -21 22 -21 250 l0 234 -85 0 -85 0 0
-239z"/>
<path d="M7230 1668 c0 -12 7 -30 17 -40 9 -10 21 -39 28 -65 9 -37 17 -49 34
-51 20 -3 21 0 21 87 l0 91 -50 0 c-45 0 -50 -2 -50 -22z"/>
<path d="M7524 1675 c-5 -12 32 -197 62 -312 6 -21 3 -23 -40 -23 -39 0 -46
-3 -46 -20 0 -17 7 -20 49 -20 48 0 49 0 59 -40 8 -32 7 -44 -4 -55 -8 -7 -14
-21 -14 -29 0 -14 18 -16 120 -16 100 0 120 3 120 15 0 8 -8 23 -17 33 -12 11
-37 100 -72 250 l-55 232 -78 0 c-61 0 -80 -3 -84 -15z"/>
<path d="M7874 1678 c-4 -7 2 -18 14 -26 21 -14 22 -20 22 -227 0 -207 -1
-213 -22 -227 -42 -28 -13 -38 108 -38 95 0 116 3 121 16 3 9 -3 21 -16 30
-20 15 -21 22 -21 219 0 197 1 204 21 219 13 9 19 21 16 30 -5 13 -26 16 -121
16 -77 0 -117 -4 -122 -12z"/>
<path d="M8197 1683 c-13 -12 -7 -32 11 -37 10 -4 78 -110 157 -246 l140 -240
53 0 52 0 0 88 0 87 -103 177 -102 178 -101 0 c-55 0 -104 -3 -107 -7z"/>
<path d="M8515 1680 c-4 -6 7 -23 24 -39 29 -27 31 -33 31 -105 0 -58 5 -83
20 -108 l20 -33 0 98 c0 101 8 129 43 157 11 10 17 22 13 28 -9 15 -142 16
-151 2z"/>
<path d="M7458 1414 c-44 -156 -51 -172 -84 -201 -20 -17 -33 -37 -29 -42 9
-15 142 -14 151 1 4 6 -4 19 -19 30 -15 11 -27 26 -27 35 0 8 17 75 37 148 29
107 35 140 27 166 -8 29 -13 18 -56 -137z"/>
<path d="M294 1546 c-3 -13 -14 -32 -25 -42 -23 -20 -25 -60 -4 -67 8 -4 21
-22 30 -42 26 -64 40 -39 40 71 0 85 -2 99 -17 102 -12 2 -19 -5 -24 -22z"/>
<path d="M6418 1391 l-3 -163 -29 -23 c-41 -33 -26 -45 54 -45 75 0 95 13 63
39 -36 28 -43 56 -43 178 0 100 -3 123 -19 147 l-20 29 -3 -162z"/>
<path d="M8238 1391 l-3 -163 -29 -23 c-41 -33 -26 -45 54 -45 75 0 95 13 63
39 -36 28 -43 56 -43 178 0 100 -3 123 -19 147 l-20 29 -3 -162z"/>
<path d="M1510 1291 c0 -102 7 -120 38 -89 9 9 21 9 50 0 22 -7 44 -12 51 -12
21 0 11 37 -13 48 -29 13 -55 49 -76 106 -9 23 -23 42 -33 44 -15 3 -17 -7
-17 -97z"/>
</g>
</svg>
