<?xml version="1.0" standalone="no"?>
<!DOCTYPE svg PUBLIC "-//W3C//DTD SVG 20010904//EN"
 "http://www.w3.org/TR/2001/REC-SVG-20010904/DTD/svg10.dtd">
<svg version="1.0" xmlns="http://www.w3.org/2000/svg"
 width="376.000000pt" height="183.000000pt" viewBox="0 0 376.000000 183.000000"
 preserveAspectRatio="xMidYMid meet">

<g transform="translate(0.000000,183.000000) scale(0.100000,-0.100000)"
fill="#000000" stroke="none">
<path d="M1725 1820 c-4 -6 -23 -18 -42 -28 -27 -13 -40 -28 -52 -61 -17 -48
-49 -70 -150 -107 -44 -15 -53 -23 -66 -59 -15 -39 -19 -42 -84 -58 -83 -22
-156 -68 -236 -147 -33 -33 -85 -79 -115 -103 -36 -28 -64 -60 -80 -93 -14
-27 -36 -61 -50 -76 -14 -14 -33 -37 -42 -51 -10 -14 -43 -40 -74 -57 -30 -18
-58 -40 -62 -49 -8 -22 -120 -129 -142 -136 -9 -3 -22 -17 -28 -30 -7 -14 -20
-25 -31 -25 -35 0 -51 -12 -70 -49 -11 -21 -42 -52 -74 -74 -30 -21 -58 -46
-63 -56 -5 -11 -29 -34 -53 -53 -38 -29 -57 -56 -93 -130 -4 -10 -8 -31 -8
-48 0 -17 -6 -33 -14 -36 -8 -3 -18 -20 -21 -37 -4 -18 -20 -54 -35 -82 -35
-64 -43 -97 -27 -118 11 -15 39 -16 306 -7 162 5 297 12 301 17 4 4 49 102
100 218 195 445 161 390 368 604 175 182 191 196 370 318 103 70 202 143 220
163 32 34 35 35 110 35 l77 -1 83 -64 c46 -36 95 -74 110 -85 15 -11 53 -41
84 -67 31 -27 61 -48 67 -48 6 0 11 -2 11 -5 0 -11 -64 -112 -85 -135 -13 -14
-31 -43 -40 -65 -10 -21 -30 -55 -46 -74 -16 -20 -29 -40 -29 -45 0 -5 -16
-28 -35 -52 -19 -23 -35 -45 -35 -49 0 -4 -6 -21 -14 -38 -8 -18 -24 -58 -35
-90 -25 -69 -47 -104 -84 -136 -15 -13 -37 -42 -49 -65 -24 -48 -56 -86 -74
-86 -6 0 -35 -25 -62 -55 -36 -39 -52 -66 -57 -95 -4 -24 -14 -44 -26 -50 -11
-6 -19 -21 -19 -35 0 -48 16 -52 212 -57 101 -3 189 -3 196 0 19 7 218 414
285 584 l59 146 121 119 c67 66 143 132 169 147 42 24 52 26 81 17 45 -15 98
4 129 46 13 17 37 50 54 72 l32 41 34 -43 c39 -48 150 -201 190 -264 15 -23
48 -56 73 -73 25 -17 45 -37 45 -44 0 -38 79 -122 167 -178 40 -26 129 -155
172 -248 25 -53 52 -90 66 -90 8 0 34 -16 60 -35 39 -30 49 -34 66 -24 17 9
20 17 15 42 -4 18 -12 34 -18 36 -24 8 -102 88 -139 142 -24 36 -45 84 -58
133 -22 87 -42 116 -80 116 -20 0 -52 27 -139 117 -102 108 -172 193 -172 211
0 14 -62 82 -74 82 -8 0 -29 25 -47 57 -30 49 -84 115 -200 241 -21 23 -36 31
-47 27 -48 -20 -99 -17 -152 9 -50 25 -58 26 -94 15 -25 -9 -53 -30 -80 -62
-107 -129 -118 -139 -136 -122 -9 8 -22 15 -29 15 -6 0 -41 13 -77 30 -63 28
-66 31 -95 97 -45 102 -54 117 -88 134 -32 17 -90 92 -91 119 -1 8 -11 29 -23
46 -12 17 -39 56 -60 88 -37 55 -67 76 -107 76 -10 0 -22 -5 -25 -10z"/>
</g>
</svg>
