<svg height="512pt" viewBox="0 -121 512.001 512" width="512pt" xmlns="http://www.w3.org/2000/svg"><path d="m494.570312 86.019531h-20.996093v-5.203125c0-23.121094-15.683594-43.113281-38.140625-48.613281l-85.175782-20.871094c-61.664062-15.109375-126.851562-15.109375-188.515624 0l-85.175782 20.871094c-22.457031 5.5-38.140625 25.492187-38.140625 48.613281v5.203125h-20.996093c-9.609376 0-17.429688 7.820313-17.429688 17.429688v86.34375c0 9.613281 7.820312 17.429687 17.429688 17.429687h21.078124c1.292969 23.496094 19.222657 43.371094 42.722657 46.8125l102.371093 14.988282c1.886719.273437 3.800782.414062 5.691407.414062 13.765625 0 26.605469-7.4375 33.515625-19.40625l35.539062-61.550781 35.171875 60.921875c8 13.851562 23.394531 21.300781 39.214844 18.984375l98.035156-14.351563c23.503907-3.441406 41.429688-23.316406 42.722657-46.8125h21.078124c9.613282 0 17.429688-7.816406 17.429688-17.429687v-86.34375c0-9.609375-7.820312-17.429688-17.429688-17.429688zm-35.9375 118.488281c0 17.300782-12.90625 32.238282-30.027343 34.746094l-98.039063 14.347656c-9.730468 1.433594-19.191406-3.15625-24.113281-11.671874l-39.625-68.640626c-1.742187-3.019531-4.992187-4.894531-8.480469-4.894531-3.488281 0-6.738281 1.875-8.480468 4.894531l-39.996094 69.273438c-4.3125 7.472656-12.007813 11.933594-20.578125 11.933594-1.171875 0-2.363281-.085938-3.53125-.257813l-102.367188-14.988281c-17.121093-2.503906-30.027343-17.441406-30.027343-34.742188v-56.9375c0-4.128906-3.34375-7.472656-7.472657-7.472656-4.125 0-7.46875 3.34375-7.46875 7.472656v44.714844h-20.996093c-1.371094 0-2.488282-1.117187-2.488282-2.492187v-86.34375c0-1.375 1.117188-2.492188 2.488282-2.492188h20.996093v11.421875c0 4.125 3.34375 7.46875 7.46875 7.46875 4.128907 0 7.472657-3.34375 7.472657-7.46875v-31.5625c0-16.21875 11-30.246094 26.757812-34.105468l85.175781-20.871094c59.332031-14.535156 122.0625-14.535156 181.398438 0l85.179687 20.871094c15.753906 3.859374 26.757813 17.886718 26.757813 34.105468v123.691406zm38.425782-14.714843c0 1.375-1.117188 2.492187-2.488282 2.492187h-20.996093v-91.328125h20.996093c1.371094 0 2.488282 1.117188 2.488282 2.492188zm0 0"/><path d="m427.324219 65.289062-33.464844-8.199218c-4.007813-.988282-8.050781 1.472656-9.035156 5.480468-.980469 4.003907 1.472656 8.050782 5.480469 9.03125l33.464843 8.199219c.476563.117188.796875.527344.796875 1.015625v123.691406c0 .492188-.410156.964844-.894531 1.035157l-91.179687 13.347656-46.386719-80.347656c-5.707031-9.882813-16.34375-16.023438-27.757813-16.023438-11.414062 0-22.050781 6.140625-27.757812 16.023438l-46.757813 80.984375-95.507812-13.984375c-.484375-.070313-.890625-.546875-.890625-1.035157v-123.691406c0-.488281.320312-.898437.796875-1.015625l85.175781-20.871093c26.890625-6.585938 54.675781-9.925782 82.59375-9.925782 27.914062 0 55.703125 3.339844 82.589844 9.925782l16.941406 4.152343c4.007812.984375 8.050781-1.46875 9.03125-5.476562.984375-4.007813-1.46875-8.050781-5.476562-9.035157l-16.9375-4.148437c-28.050782-6.875-57.035157-10.359375-86.148438-10.359375s-58.101562 3.484375-86.148438 10.359375l-85.175781 20.867187c-7.171875 1.757813-12.183593 8.140626-12.183593 15.527344v123.691406c0 7.875 5.878906 14.675782 13.667968 15.816407l100.523438 14.71875c.363281.050781.726562.078125 1.085937.078125 2.636719 0 5.117188-1.402344 6.464844-3.734375l49.289063-85.371094c3.046874-5.277344 8.730468-8.558594 14.824218-8.558594s11.769532 3.28125 14.816406 8.558594l48.925782 84.738281c1.527344 2.648438 4.527344 4.105469 7.550781 3.65625l96.195313-14.082031c7.792968-1.144531 13.671874-7.945313 13.671874-15.820313v-123.691406c0-7.386718-5.011718-13.769531-12.183593-15.527344zm0 0"/></svg>